<mxfile host="app.diagrams.net" modified="2024-07-09T10:35:04.122Z" agent="Mozilla/5.0 (Windows NT 10.0; Win64; x64; rv:127.0) Gecko/20100101 Firefox/127.0" etag="uP-V_anUPkbwvkxzuNoX" version="24.6.4" type="device">
  <diagram id="C5RBs43oDa-KdzZeNtuy" name="Page-1">
    <mxGraphModel dx="2062" dy="568" grid="1" gridSize="10" guides="1" tooltips="1" connect="1" arrows="1" fold="1" page="1" pageScale="1" pageWidth="827" pageHeight="1169" math="0" shadow="0">
      <root>
        <mxCell id="WIyWlLk6GJQsqaUBKTNV-0" />
        <mxCell id="WIyWlLk6GJQsqaUBKTNV-1" parent="WIyWlLk6GJQsqaUBKTNV-0" />
        <mxCell id="PwW7eaaHqblEwGgSJdQu-0" value="Producer" style="swimlane;fontStyle=1;align=center;verticalAlign=top;childLayout=stackLayout;horizontal=1;startSize=26;horizontalStack=0;resizeParent=1;resizeParentMax=0;resizeLast=0;collapsible=1;marginBottom=0;whiteSpace=wrap;html=1;" parent="WIyWlLk6GJQsqaUBKTNV-1" vertex="1">
          <mxGeometry x="430" y="230" width="310" height="170" as="geometry" />
        </mxCell>
        <mxCell id="PwW7eaaHqblEwGgSJdQu-1" value="&lt;div&gt;- inventory: LinkedList(Product)&lt;/div&gt;&lt;div&gt;- stands: LinkedList(Stand)&lt;br&gt;&lt;/div&gt;" style="text;strokeColor=none;fillColor=none;align=left;verticalAlign=top;spacingLeft=4;spacingRight=4;overflow=hidden;rotatable=0;points=[[0,0.5],[1,0.5]];portConstraint=eastwest;whiteSpace=wrap;html=1;" parent="PwW7eaaHqblEwGgSJdQu-0" vertex="1">
          <mxGeometry y="26" width="310" height="84" as="geometry" />
        </mxCell>
        <mxCell id="PwW7eaaHqblEwGgSJdQu-2" value="" style="line;strokeWidth=1;fillColor=none;align=left;verticalAlign=middle;spacingTop=-1;spacingLeft=3;spacingRight=3;rotatable=0;labelPosition=right;points=[];portConstraint=eastwest;strokeColor=inherit;" parent="PwW7eaaHqblEwGgSJdQu-0" vertex="1">
          <mxGeometry y="110" width="310" height="8" as="geometry" />
        </mxCell>
        <mxCell id="PwW7eaaHqblEwGgSJdQu-3" value="&lt;div&gt;+ addInventory(Product, Integer):Integer&lt;/div&gt;&lt;div&gt;+ addToStand(Stand, Product, Integer):Integer&lt;br&gt;&lt;/div&gt;" style="text;strokeColor=none;fillColor=none;align=left;verticalAlign=top;spacingLeft=4;spacingRight=4;overflow=hidden;rotatable=0;points=[[0,0.5],[1,0.5]];portConstraint=eastwest;whiteSpace=wrap;html=1;" parent="PwW7eaaHqblEwGgSJdQu-0" vertex="1">
          <mxGeometry y="118" width="310" height="52" as="geometry" />
        </mxCell>
        <mxCell id="PwW7eaaHqblEwGgSJdQu-4" value="Vegetable" style="swimlane;fontStyle=1;align=center;verticalAlign=top;childLayout=stackLayout;horizontal=1;startSize=26;horizontalStack=0;resizeParent=1;resizeParentMax=0;resizeLast=0;collapsible=1;marginBottom=0;whiteSpace=wrap;html=1;" parent="WIyWlLk6GJQsqaUBKTNV-1" vertex="1">
          <mxGeometry x="130" y="460" width="160" height="86" as="geometry" />
        </mxCell>
        <mxCell id="PwW7eaaHqblEwGgSJdQu-5" value="- type: TypeVegetable" style="text;strokeColor=none;fillColor=none;align=left;verticalAlign=top;spacingLeft=4;spacingRight=4;overflow=hidden;rotatable=0;points=[[0,0.5],[1,0.5]];portConstraint=eastwest;whiteSpace=wrap;html=1;" parent="PwW7eaaHqblEwGgSJdQu-4" vertex="1">
          <mxGeometry y="26" width="160" height="26" as="geometry" />
        </mxCell>
        <mxCell id="PwW7eaaHqblEwGgSJdQu-6" value="" style="line;strokeWidth=1;fillColor=none;align=left;verticalAlign=middle;spacingTop=-1;spacingLeft=3;spacingRight=3;rotatable=0;labelPosition=right;points=[];portConstraint=eastwest;strokeColor=inherit;" parent="PwW7eaaHqblEwGgSJdQu-4" vertex="1">
          <mxGeometry y="52" width="160" height="8" as="geometry" />
        </mxCell>
        <mxCell id="PwW7eaaHqblEwGgSJdQu-7" value="+setters and getters for type" style="text;strokeColor=none;fillColor=none;align=left;verticalAlign=top;spacingLeft=4;spacingRight=4;overflow=hidden;rotatable=0;points=[[0,0.5],[1,0.5]];portConstraint=eastwest;whiteSpace=wrap;html=1;" parent="PwW7eaaHqblEwGgSJdQu-4" vertex="1">
          <mxGeometry y="60" width="160" height="26" as="geometry" />
        </mxCell>
        <mxCell id="PwW7eaaHqblEwGgSJdQu-12" value="AnimalProduct" style="swimlane;fontStyle=1;align=center;verticalAlign=top;childLayout=stackLayout;horizontal=1;startSize=26;horizontalStack=0;resizeParent=1;resizeParentMax=0;resizeLast=0;collapsible=1;marginBottom=0;whiteSpace=wrap;html=1;" parent="WIyWlLk6GJQsqaUBKTNV-1" vertex="1">
          <mxGeometry x="334" y="460" width="190" height="86" as="geometry" />
        </mxCell>
        <mxCell id="PwW7eaaHqblEwGgSJdQu-13" value="- type:TypeAP" style="text;strokeColor=none;fillColor=none;align=left;verticalAlign=top;spacingLeft=4;spacingRight=4;overflow=hidden;rotatable=0;points=[[0,0.5],[1,0.5]];portConstraint=eastwest;whiteSpace=wrap;html=1;" parent="PwW7eaaHqblEwGgSJdQu-12" vertex="1">
          <mxGeometry y="26" width="190" height="26" as="geometry" />
        </mxCell>
        <mxCell id="PwW7eaaHqblEwGgSJdQu-14" value="" style="line;strokeWidth=1;fillColor=none;align=left;verticalAlign=middle;spacingTop=-1;spacingLeft=3;spacingRight=3;rotatable=0;labelPosition=right;points=[];portConstraint=eastwest;strokeColor=inherit;" parent="PwW7eaaHqblEwGgSJdQu-12" vertex="1">
          <mxGeometry y="52" width="190" height="8" as="geometry" />
        </mxCell>
        <mxCell id="PwW7eaaHqblEwGgSJdQu-15" value="+setters and getters for type" style="text;strokeColor=none;fillColor=none;align=left;verticalAlign=top;spacingLeft=4;spacingRight=4;overflow=hidden;rotatable=0;points=[[0,0.5],[1,0.5]];portConstraint=eastwest;whiteSpace=wrap;html=1;" parent="PwW7eaaHqblEwGgSJdQu-12" vertex="1">
          <mxGeometry y="60" width="190" height="26" as="geometry" />
        </mxCell>
        <mxCell id="PwW7eaaHqblEwGgSJdQu-16" value="Stand" style="swimlane;fontStyle=1;align=center;verticalAlign=top;childLayout=stackLayout;horizontal=1;startSize=26;horizontalStack=0;resizeParent=1;resizeParentMax=0;resizeLast=0;collapsible=1;marginBottom=0;whiteSpace=wrap;html=1;" parent="WIyWlLk6GJQsqaUBKTNV-1" vertex="1">
          <mxGeometry x="190" y="10" width="240" height="170" as="geometry" />
        </mxCell>
        <mxCell id="PwW7eaaHqblEwGgSJdQu-17" value="&lt;div&gt;- id:Integer&lt;br&gt;&lt;/div&gt;&lt;div&gt;- provider:Producer&lt;/div&gt;&lt;div&gt;- product: Product&lt;/div&gt;&lt;div&gt;- amount: Integer&lt;br&gt; &lt;/div&gt;&lt;div&gt;- price:Integer&lt;br&gt;&lt;/div&gt;" style="text;strokeColor=none;fillColor=none;align=left;verticalAlign=top;spacingLeft=4;spacingRight=4;overflow=hidden;rotatable=0;points=[[0,0.5],[1,0.5]];portConstraint=eastwest;whiteSpace=wrap;html=1;" parent="PwW7eaaHqblEwGgSJdQu-16" vertex="1">
          <mxGeometry y="26" width="240" height="74" as="geometry" />
        </mxCell>
        <mxCell id="PwW7eaaHqblEwGgSJdQu-18" value="" style="line;strokeWidth=1;fillColor=none;align=left;verticalAlign=middle;spacingTop=-1;spacingLeft=3;spacingRight=3;rotatable=0;labelPosition=right;points=[];portConstraint=eastwest;strokeColor=inherit;" parent="PwW7eaaHqblEwGgSJdQu-16" vertex="1">
          <mxGeometry y="100" width="240" height="10" as="geometry" />
        </mxCell>
        <mxCell id="PwW7eaaHqblEwGgSJdQu-19" value="&lt;div&gt;+ sell(Integer):void&lt;/div&gt;&lt;div&gt;+ add(Integer):Integer&lt;/div&gt;&lt;div&gt;+ changePrice(Integer):Integer&lt;br&gt;&lt;/div&gt;" style="text;strokeColor=none;fillColor=none;align=left;verticalAlign=top;spacingLeft=4;spacingRight=4;overflow=hidden;rotatable=0;points=[[0,0.5],[1,0.5]];portConstraint=eastwest;whiteSpace=wrap;html=1;" parent="PwW7eaaHqblEwGgSJdQu-16" vertex="1">
          <mxGeometry y="110" width="240" height="60" as="geometry" />
        </mxCell>
        <mxCell id="PwW7eaaHqblEwGgSJdQu-20" value="Fruit" style="swimlane;fontStyle=1;align=center;verticalAlign=top;childLayout=stackLayout;horizontal=1;startSize=26;horizontalStack=0;resizeParent=1;resizeParentMax=0;resizeLast=0;collapsible=1;marginBottom=0;whiteSpace=wrap;html=1;" parent="WIyWlLk6GJQsqaUBKTNV-1" vertex="1">
          <mxGeometry x="-90" y="460" width="160" height="86" as="geometry" />
        </mxCell>
        <mxCell id="PwW7eaaHqblEwGgSJdQu-21" value="- type:TypeFruit" style="text;strokeColor=none;fillColor=none;align=left;verticalAlign=top;spacingLeft=4;spacingRight=4;overflow=hidden;rotatable=0;points=[[0,0.5],[1,0.5]];portConstraint=eastwest;whiteSpace=wrap;html=1;" parent="PwW7eaaHqblEwGgSJdQu-20" vertex="1">
          <mxGeometry y="26" width="160" height="26" as="geometry" />
        </mxCell>
        <mxCell id="PwW7eaaHqblEwGgSJdQu-22" value="" style="line;strokeWidth=1;fillColor=none;align=left;verticalAlign=middle;spacingTop=-1;spacingLeft=3;spacingRight=3;rotatable=0;labelPosition=right;points=[];portConstraint=eastwest;strokeColor=inherit;" parent="PwW7eaaHqblEwGgSJdQu-20" vertex="1">
          <mxGeometry y="52" width="160" height="8" as="geometry" />
        </mxCell>
        <mxCell id="PwW7eaaHqblEwGgSJdQu-23" value="+setters and getters for type" style="text;strokeColor=none;fillColor=none;align=left;verticalAlign=top;spacingLeft=4;spacingRight=4;overflow=hidden;rotatable=0;points=[[0,0.5],[1,0.5]];portConstraint=eastwest;whiteSpace=wrap;html=1;" parent="PwW7eaaHqblEwGgSJdQu-20" vertex="1">
          <mxGeometry y="60" width="160" height="26" as="geometry" />
        </mxCell>
        <mxCell id="PwW7eaaHqblEwGgSJdQu-28" value="Market" style="swimlane;fontStyle=1;align=center;verticalAlign=top;childLayout=stackLayout;horizontal=1;startSize=26;horizontalStack=0;resizeParent=1;resizeParentMax=0;resizeLast=0;collapsible=1;marginBottom=0;whiteSpace=wrap;html=1;" parent="WIyWlLk6GJQsqaUBKTNV-1" vertex="1">
          <mxGeometry x="620" y="10" width="240" height="158" as="geometry" />
        </mxCell>
        <mxCell id="PwW7eaaHqblEwGgSJdQu-29" value="- name:String&lt;br&gt;&lt;div&gt;- stands:LinkedList(Stand)&lt;/div&gt;" style="text;strokeColor=none;fillColor=none;align=left;verticalAlign=top;spacingLeft=4;spacingRight=4;overflow=hidden;rotatable=0;points=[[0,0.5],[1,0.5]];portConstraint=eastwest;whiteSpace=wrap;html=1;" parent="PwW7eaaHqblEwGgSJdQu-28" vertex="1">
          <mxGeometry y="26" width="240" height="44" as="geometry" />
        </mxCell>
        <mxCell id="PwW7eaaHqblEwGgSJdQu-30" value="" style="line;strokeWidth=1;fillColor=none;align=left;verticalAlign=middle;spacingTop=-1;spacingLeft=3;spacingRight=3;rotatable=0;labelPosition=right;points=[];portConstraint=eastwest;strokeColor=inherit;" parent="PwW7eaaHqblEwGgSJdQu-28" vertex="1">
          <mxGeometry y="70" width="240" height="8" as="geometry" />
        </mxCell>
        <mxCell id="PwW7eaaHqblEwGgSJdQu-31" value="&lt;div&gt;+ addProduct(Producer, Product):void&lt;/div&gt;&lt;div&gt;+ removeProduct(Integer):void&lt;/div&gt;&lt;div&gt;+ seekProduct(Product):ArrayList(Stand)&lt;/div&gt;&lt;div&gt;+ seekProducer(Producer):ArrayList(Stand)&lt;br&gt;+ sell(Integer,Integer):void&lt;br&gt;&lt;/div&gt;" style="text;strokeColor=none;fillColor=none;align=left;verticalAlign=top;spacingLeft=4;spacingRight=4;overflow=hidden;rotatable=0;points=[[0,0.5],[1,0.5]];portConstraint=eastwest;whiteSpace=wrap;html=1;" parent="PwW7eaaHqblEwGgSJdQu-28" vertex="1">
          <mxGeometry y="78" width="240" height="80" as="geometry" />
        </mxCell>
        <mxCell id="PwW7eaaHqblEwGgSJdQu-32" value="&lt;i&gt;Product&lt;/i&gt;" style="swimlane;fontStyle=1;align=center;verticalAlign=top;childLayout=stackLayout;horizontal=1;startSize=26;horizontalStack=0;resizeParent=1;resizeParentMax=0;resizeLast=0;collapsible=1;marginBottom=0;whiteSpace=wrap;html=1;" parent="WIyWlLk6GJQsqaUBKTNV-1" vertex="1">
          <mxGeometry x="20" y="230" width="250" height="150" as="geometry" />
        </mxCell>
        <mxCell id="PwW7eaaHqblEwGgSJdQu-33" value="&lt;div&gt;- name: String&lt;br&gt;&lt;/div&gt;&lt;div&gt;- provider: Producer&lt;/div&gt;" style="text;strokeColor=none;fillColor=none;align=left;verticalAlign=top;spacingLeft=4;spacingRight=4;overflow=hidden;rotatable=0;points=[[0,0.5],[1,0.5]];portConstraint=eastwest;whiteSpace=wrap;html=1;" parent="PwW7eaaHqblEwGgSJdQu-32" vertex="1">
          <mxGeometry y="26" width="250" height="64" as="geometry" />
        </mxCell>
        <mxCell id="PwW7eaaHqblEwGgSJdQu-34" value="" style="line;strokeWidth=1;fillColor=none;align=left;verticalAlign=middle;spacingTop=-1;spacingLeft=3;spacingRight=3;rotatable=0;labelPosition=right;points=[];portConstraint=eastwest;strokeColor=inherit;" parent="PwW7eaaHqblEwGgSJdQu-32" vertex="1">
          <mxGeometry y="90" width="250" height="8" as="geometry" />
        </mxCell>
        <mxCell id="PwW7eaaHqblEwGgSJdQu-50" style="edgeStyle=orthogonalEdgeStyle;rounded=0;orthogonalLoop=1;jettySize=auto;html=1;exitX=1;exitY=0.5;exitDx=0;exitDy=0;" parent="PwW7eaaHqblEwGgSJdQu-32" source="PwW7eaaHqblEwGgSJdQu-33" target="PwW7eaaHqblEwGgSJdQu-33" edge="1">
          <mxGeometry relative="1" as="geometry" />
        </mxCell>
        <mxCell id="PwW7eaaHqblEwGgSJdQu-35" value="&lt;div&gt;+getters and setters for provider and name&lt;/div&gt;" style="text;strokeColor=none;fillColor=none;align=left;verticalAlign=top;spacingLeft=4;spacingRight=4;overflow=hidden;rotatable=0;points=[[0,0.5],[1,0.5]];portConstraint=eastwest;whiteSpace=wrap;html=1;" parent="PwW7eaaHqblEwGgSJdQu-32" vertex="1">
          <mxGeometry y="98" width="250" height="52" as="geometry" />
        </mxCell>
        <mxCell id="PwW7eaaHqblEwGgSJdQu-36" value="" style="endArrow=diamondThin;endFill=0;endSize=24;html=1;rounded=0;exitX=1;exitY=0.5;exitDx=0;exitDy=0;" parent="WIyWlLk6GJQsqaUBKTNV-1" source="PwW7eaaHqblEwGgSJdQu-17" edge="1">
          <mxGeometry width="160" relative="1" as="geometry">
            <mxPoint x="330" y="280" as="sourcePoint" />
            <mxPoint x="616" y="77" as="targetPoint" />
          </mxGeometry>
        </mxCell>
        <mxCell id="PwW7eaaHqblEwGgSJdQu-37" value="may have" style="edgeLabel;html=1;align=center;verticalAlign=middle;resizable=0;points=[];" parent="PwW7eaaHqblEwGgSJdQu-36" vertex="1" connectable="0">
          <mxGeometry x="0.0116" y="-2" relative="1" as="geometry">
            <mxPoint as="offset" />
          </mxGeometry>
        </mxCell>
        <mxCell id="PwW7eaaHqblEwGgSJdQu-38" value="0..n" style="edgeLabel;html=1;align=center;verticalAlign=middle;resizable=0;points=[];" parent="PwW7eaaHqblEwGgSJdQu-36" vertex="1" connectable="0">
          <mxGeometry x="0.8937" y="-5" relative="1" as="geometry">
            <mxPoint y="8" as="offset" />
          </mxGeometry>
        </mxCell>
        <mxCell id="PwW7eaaHqblEwGgSJdQu-39" value="1" style="edgeLabel;html=1;align=center;verticalAlign=middle;resizable=0;points=[];" parent="PwW7eaaHqblEwGgSJdQu-36" vertex="1" connectable="0">
          <mxGeometry x="-0.8061" y="-2" relative="1" as="geometry">
            <mxPoint x="-8" y="15" as="offset" />
          </mxGeometry>
        </mxCell>
        <mxCell id="PwW7eaaHqblEwGgSJdQu-43" value="" style="endArrow=diamondThin;endFill=1;endSize=24;html=1;rounded=0;entryX=-0.012;entryY=0.919;entryDx=0;entryDy=0;entryPerimeter=0;exitX=0.472;exitY=0.007;exitDx=0;exitDy=0;exitPerimeter=0;" parent="WIyWlLk6GJQsqaUBKTNV-1" source="PwW7eaaHqblEwGgSJdQu-32" target="PwW7eaaHqblEwGgSJdQu-17" edge="1">
          <mxGeometry width="160" relative="1" as="geometry">
            <mxPoint x="145" y="219" as="sourcePoint" />
            <mxPoint x="490" y="280" as="targetPoint" />
            <Array as="points">
              <mxPoint x="138" y="100" />
            </Array>
          </mxGeometry>
        </mxCell>
        <mxCell id="PwW7eaaHqblEwGgSJdQu-44" value="1" style="edgeLabel;html=1;align=center;verticalAlign=middle;resizable=0;points=[];" parent="PwW7eaaHqblEwGgSJdQu-43" vertex="1" connectable="0">
          <mxGeometry x="0.7426" relative="1" as="geometry">
            <mxPoint y="-12" as="offset" />
          </mxGeometry>
        </mxCell>
        <mxCell id="PwW7eaaHqblEwGgSJdQu-45" value="1" style="edgeLabel;html=1;align=center;verticalAlign=middle;resizable=0;points=[];" parent="PwW7eaaHqblEwGgSJdQu-43" vertex="1" connectable="0">
          <mxGeometry x="-0.7665" y="4" relative="1" as="geometry">
            <mxPoint x="-4" y="10" as="offset" />
          </mxGeometry>
        </mxCell>
        <mxCell id="PwW7eaaHqblEwGgSJdQu-51" value="may sell" style="edgeLabel;html=1;align=center;verticalAlign=middle;resizable=0;points=[];" parent="PwW7eaaHqblEwGgSJdQu-43" vertex="1" connectable="0">
          <mxGeometry x="-0.0567" y="2" relative="1" as="geometry">
            <mxPoint as="offset" />
          </mxGeometry>
        </mxCell>
        <mxCell id="PwW7eaaHqblEwGgSJdQu-46" value="1" style="endArrow=open;html=1;endSize=12;startArrow=diamondThin;startSize=14;startFill=1;edgeStyle=orthogonalEdgeStyle;align=left;verticalAlign=bottom;rounded=0;entryX=0.5;entryY=0;entryDx=0;entryDy=0;" parent="WIyWlLk6GJQsqaUBKTNV-1" target="PwW7eaaHqblEwGgSJdQu-0" edge="1">
          <mxGeometry x="-0.887" relative="1" as="geometry">
            <mxPoint x="430" y="120" as="sourcePoint" />
            <mxPoint x="490" y="260" as="targetPoint" />
            <Array as="points">
              <mxPoint x="545" y="120" />
            </Array>
            <mxPoint as="offset" />
          </mxGeometry>
        </mxCell>
        <mxCell id="PwW7eaaHqblEwGgSJdQu-47" value="0..n" style="edgeLabel;html=1;align=center;verticalAlign=middle;resizable=0;points=[];" parent="PwW7eaaHqblEwGgSJdQu-46" vertex="1" connectable="0">
          <mxGeometry x="0.774" y="2" relative="1" as="geometry">
            <mxPoint x="21" as="offset" />
          </mxGeometry>
        </mxCell>
        <mxCell id="PwW7eaaHqblEwGgSJdQu-52" value="may sell at" style="edgeLabel;html=1;align=center;verticalAlign=middle;resizable=0;points=[];" parent="PwW7eaaHqblEwGgSJdQu-46" vertex="1" connectable="0">
          <mxGeometry x="0.2203" y="-1" relative="1" as="geometry">
            <mxPoint as="offset" />
          </mxGeometry>
        </mxCell>
        <mxCell id="PwW7eaaHqblEwGgSJdQu-49" value="1" style="endArrow=open;html=1;endSize=12;startArrow=diamondThin;startSize=14;startFill=1;edgeStyle=orthogonalEdgeStyle;align=left;verticalAlign=bottom;rounded=0;exitX=1;exitY=0.656;exitDx=0;exitDy=0;entryX=0;entryY=0.5;entryDx=0;entryDy=0;exitPerimeter=0;" parent="WIyWlLk6GJQsqaUBKTNV-1" source="PwW7eaaHqblEwGgSJdQu-33" target="PwW7eaaHqblEwGgSJdQu-1" edge="1">
          <mxGeometry x="-1" y="3" relative="1" as="geometry">
            <mxPoint x="330" y="260" as="sourcePoint" />
            <mxPoint x="490" y="260" as="targetPoint" />
          </mxGeometry>
        </mxCell>
        <mxCell id="PwW7eaaHqblEwGgSJdQu-64" value="Extends" style="endArrow=block;endSize=16;endFill=0;html=1;rounded=0;exitX=0.5;exitY=0;exitDx=0;exitDy=0;entryX=0.124;entryY=1.096;entryDx=0;entryDy=0;entryPerimeter=0;" parent="WIyWlLk6GJQsqaUBKTNV-1" source="PwW7eaaHqblEwGgSJdQu-20" target="PwW7eaaHqblEwGgSJdQu-35" edge="1">
          <mxGeometry width="160" relative="1" as="geometry">
            <mxPoint x="330" y="280" as="sourcePoint" />
            <mxPoint x="490" y="280" as="targetPoint" />
          </mxGeometry>
        </mxCell>
        <mxCell id="PwW7eaaHqblEwGgSJdQu-65" value="Extends" style="endArrow=block;endSize=16;endFill=0;html=1;rounded=0;exitX=0.425;exitY=-0.035;exitDx=0;exitDy=0;entryX=0.54;entryY=1.058;entryDx=0;entryDy=0;entryPerimeter=0;exitPerimeter=0;" parent="WIyWlLk6GJQsqaUBKTNV-1" source="PwW7eaaHqblEwGgSJdQu-4" target="PwW7eaaHqblEwGgSJdQu-35" edge="1">
          <mxGeometry width="160" relative="1" as="geometry">
            <mxPoint y="470" as="sourcePoint" />
            <mxPoint x="61" y="395" as="targetPoint" />
          </mxGeometry>
        </mxCell>
        <mxCell id="PwW7eaaHqblEwGgSJdQu-66" value="Extends" style="endArrow=block;endSize=16;endFill=0;html=1;rounded=0;exitX=0.25;exitY=0;exitDx=0;exitDy=0;entryX=0.832;entryY=1.096;entryDx=0;entryDy=0;entryPerimeter=0;" parent="WIyWlLk6GJQsqaUBKTNV-1" source="PwW7eaaHqblEwGgSJdQu-12" target="PwW7eaaHqblEwGgSJdQu-35" edge="1">
          <mxGeometry width="160" relative="1" as="geometry">
            <mxPoint x="208" y="477" as="sourcePoint" />
            <mxPoint x="165" y="393" as="targetPoint" />
          </mxGeometry>
        </mxCell>
        <mxCell id="PwW7eaaHqblEwGgSJdQu-67" value="&lt;p style=&quot;margin:0px;margin-top:4px;text-align:center;text-decoration:underline;&quot;&gt;&lt;b&gt;Enumeration: TypeFruit&lt;/b&gt;&lt;/p&gt;&lt;hr size=&quot;1&quot; style=&quot;border-style:solid;&quot;&gt;&lt;div&gt;&amp;nbsp;Berries&lt;/div&gt;&lt;div&gt;&amp;nbsp;Cores&lt;/div&gt;&lt;div&gt;&amp;nbsp;Citrus&lt;/div&gt;&lt;div&gt;&amp;nbsp;Pits&lt;/div&gt;&lt;div&gt;&amp;nbsp;Melons&lt;/div&gt;&lt;div&gt;&amp;nbsp;Tropical&lt;br&gt;&lt;/div&gt;&lt;div&gt;&lt;br&gt;&lt;/div&gt;&lt;div&gt;&lt;br&gt;&lt;/div&gt;" style="verticalAlign=top;align=left;overflow=fill;html=1;whiteSpace=wrap;" parent="WIyWlLk6GJQsqaUBKTNV-1" vertex="1">
          <mxGeometry x="-90" y="580" width="160" height="130" as="geometry" />
        </mxCell>
        <mxCell id="PwW7eaaHqblEwGgSJdQu-68" value="&lt;p style=&quot;margin:0px;margin-top:4px;text-align:center;text-decoration:underline;&quot;&gt;&lt;b&gt;Enumeration: TypeVegetable&lt;/b&gt;&lt;/p&gt;&lt;hr size=&quot;1&quot; style=&quot;border-style:solid;&quot;&gt;&lt;div&gt;&amp;nbsp; Root&lt;/div&gt;&lt;div&gt;&amp;nbsp; Allium&lt;/div&gt;&lt;div&gt;&amp;nbsp; PlantStem&lt;/div&gt;&lt;div&gt;&amp;nbsp; Cruciferous&lt;/div&gt;&lt;div&gt;&amp;nbsp; LeafyGreen&lt;/div&gt;&lt;div&gt;&amp;nbsp; Marrow&lt;br&gt;&lt;/div&gt;&lt;div&gt;&lt;br&gt;&lt;/div&gt;&lt;div&gt;&lt;br&gt;&lt;/div&gt;&lt;div&gt;&lt;br&gt;&lt;/div&gt;" style="verticalAlign=top;align=left;overflow=fill;html=1;whiteSpace=wrap;" parent="WIyWlLk6GJQsqaUBKTNV-1" vertex="1">
          <mxGeometry x="120" y="580" width="180" height="130" as="geometry" />
        </mxCell>
        <mxCell id="PwW7eaaHqblEwGgSJdQu-70" value="" style="endArrow=none;html=1;rounded=0;exitX=0.5;exitY=0;exitDx=0;exitDy=0;entryX=0.5;entryY=1;entryDx=0;entryDy=0;" parent="WIyWlLk6GJQsqaUBKTNV-1" source="PwW7eaaHqblEwGgSJdQu-68" target="PwW7eaaHqblEwGgSJdQu-4" edge="1">
          <mxGeometry width="50" height="50" relative="1" as="geometry">
            <mxPoint x="110" y="450" as="sourcePoint" />
            <mxPoint x="160" y="400" as="targetPoint" />
          </mxGeometry>
        </mxCell>
        <mxCell id="PwW7eaaHqblEwGgSJdQu-71" value="" style="endArrow=none;html=1;rounded=0;exitX=0.5;exitY=0;exitDx=0;exitDy=0;entryX=0.5;entryY=1.038;entryDx=0;entryDy=0;entryPerimeter=0;" parent="WIyWlLk6GJQsqaUBKTNV-1" source="PwW7eaaHqblEwGgSJdQu-67" target="PwW7eaaHqblEwGgSJdQu-23" edge="1">
          <mxGeometry width="50" height="50" relative="1" as="geometry">
            <mxPoint x="110" y="500" as="sourcePoint" />
            <mxPoint x="160" y="450" as="targetPoint" />
          </mxGeometry>
        </mxCell>
        <mxCell id="PwW7eaaHqblEwGgSJdQu-72" value="&lt;p style=&quot;margin:0px;margin-top:4px;text-align:center;text-decoration:underline;&quot;&gt;&lt;b&gt;Enumeration: TypeAP&lt;/b&gt;&lt;/p&gt;&lt;hr size=&quot;1&quot; style=&quot;border-style:solid;&quot;&gt;&lt;div&gt;&amp;nbsp; Dairy&lt;/div&gt;&lt;div&gt;&amp;nbsp; Meat&lt;br&gt;&lt;/div&gt;&lt;div&gt;&amp;nbsp; Honey&lt;/div&gt;&lt;div&gt;&amp;nbsp; Fish&lt;/div&gt;&lt;div&gt;&amp;nbsp; NonEdible&lt;br&gt;&lt;/div&gt;&lt;div&gt;&amp;nbsp; &lt;br&gt;&lt;/div&gt;" style="verticalAlign=top;align=left;overflow=fill;html=1;whiteSpace=wrap;" parent="WIyWlLk6GJQsqaUBKTNV-1" vertex="1">
          <mxGeometry x="339" y="580" width="180" height="130" as="geometry" />
        </mxCell>
        <mxCell id="PwW7eaaHqblEwGgSJdQu-73" value="" style="endArrow=none;html=1;rounded=0;exitX=0.5;exitY=0;exitDx=0;exitDy=0;entryX=0.5;entryY=1;entryDx=0;entryDy=0;" parent="WIyWlLk6GJQsqaUBKTNV-1" source="PwW7eaaHqblEwGgSJdQu-72" target="PwW7eaaHqblEwGgSJdQu-12" edge="1">
          <mxGeometry width="50" height="50" relative="1" as="geometry">
            <mxPoint x="110" y="450" as="sourcePoint" />
            <mxPoint x="160" y="400" as="targetPoint" />
          </mxGeometry>
        </mxCell>
        <mxCell id="ZMGcZzdA2aFSLJOOviae-0" value="Person" style="swimlane;fontStyle=1;align=center;verticalAlign=top;childLayout=stackLayout;horizontal=1;startSize=26;horizontalStack=0;resizeParent=1;resizeParentMax=0;resizeLast=0;collapsible=1;marginBottom=0;whiteSpace=wrap;html=1;" vertex="1" parent="WIyWlLk6GJQsqaUBKTNV-1">
          <mxGeometry x="840" y="210" width="160" height="170" as="geometry" />
        </mxCell>
        <mxCell id="ZMGcZzdA2aFSLJOOviae-1" value="&lt;div&gt;-name: String&lt;/div&gt;&lt;div&gt;-wallet: Integer&lt;br&gt;&lt;/div&gt;&lt;div&gt;-whereIsAt:Market&lt;br&gt;&lt;/div&gt;" style="text;strokeColor=none;fillColor=none;align=left;verticalAlign=top;spacingLeft=4;spacingRight=4;overflow=hidden;rotatable=0;points=[[0,0.5],[1,0.5]];portConstraint=eastwest;whiteSpace=wrap;html=1;" vertex="1" parent="ZMGcZzdA2aFSLJOOviae-0">
          <mxGeometry y="26" width="160" height="54" as="geometry" />
        </mxCell>
        <mxCell id="ZMGcZzdA2aFSLJOOviae-2" value="" style="line;strokeWidth=1;fillColor=none;align=left;verticalAlign=middle;spacingTop=-1;spacingLeft=3;spacingRight=3;rotatable=0;labelPosition=right;points=[];portConstraint=eastwest;strokeColor=inherit;" vertex="1" parent="ZMGcZzdA2aFSLJOOviae-0">
          <mxGeometry y="80" width="160" height="8" as="geometry" />
        </mxCell>
        <mxCell id="ZMGcZzdA2aFSLJOOviae-3" value="&lt;div&gt;+buy(Stand,Amount):void&lt;/div&gt;&lt;div&gt;+goTo(Market): void&lt;/div&gt;&lt;div&gt;+leave():void&lt;/div&gt;+addMoney(Integer):void" style="text;strokeColor=none;fillColor=none;align=left;verticalAlign=top;spacingLeft=4;spacingRight=4;overflow=hidden;rotatable=0;points=[[0,0.5],[1,0.5]];portConstraint=eastwest;whiteSpace=wrap;html=1;" vertex="1" parent="ZMGcZzdA2aFSLJOOviae-0">
          <mxGeometry y="88" width="160" height="82" as="geometry" />
        </mxCell>
        <mxCell id="ZMGcZzdA2aFSLJOOviae-4" value="Extends" style="endArrow=block;endSize=16;endFill=0;html=1;rounded=0;entryX=-0.02;entryY=1.102;entryDx=0;entryDy=0;entryPerimeter=0;exitX=1;exitY=0.5;exitDx=0;exitDy=0;" edge="1" parent="WIyWlLk6GJQsqaUBKTNV-1" source="PwW7eaaHqblEwGgSJdQu-1" target="ZMGcZzdA2aFSLJOOviae-1">
          <mxGeometry width="160" relative="1" as="geometry">
            <mxPoint x="470" y="320" as="sourcePoint" />
            <mxPoint x="630" y="320" as="targetPoint" />
          </mxGeometry>
        </mxCell>
      </root>
    </mxGraphModel>
  </diagram>
</mxfile>
